<svg width="20" height="18" viewBox="0 0 20 18" fill="none" xmlns="http://www.w3.org/2000/svg">
<path id="Icon" opacity="0.7" d="M1.64478 1H2.25109C3.27172 1 4.12861 1.7685 4.2393 2.78311L5.05025 10.2169C5.16094 11.2315 6.01784 12 7.03846 12H15.6908C16.605 12 17.4029 11.3801 17.6288 10.4942L19.0087 5.08311C19.3312 3.81854 18.3758 2.58889 17.0707 2.58889H5.24478M5.26953 15.6249H6.01953M5.26953 16.3749H6.01953M16.2695 15.6249H17.0195M16.2695 16.3749H17.0195M6.64478 16C6.64478 16.5523 6.19706 17 5.64478 17C5.09249 17 4.64478 16.5523 4.64478 16C4.64478 15.4477 5.09249 15 5.64478 15C6.19706 15 6.64478 15.4477 6.64478 16ZM17.6448 16C17.6448 16.5523 17.1971 17 16.6448 17C16.0925 17 15.6448 16.5523 15.6448 16C15.6448 15.4477 16.0925 15 16.6448 15C17.1971 15 17.6448 15.4477 17.6448 16Z" stroke="#221F1F" stroke-width="1.5" stroke-linecap="round"/>
</svg>
