<svg width="19" height="16" viewBox="0 0 19 16" fill="none" xmlns="http://www.w3.org/2000/svg">
<path id="Vector" opacity="0.7" d="M5.12731 0.750001L5.12784 0.750001C5.83017 0.749505 6.52229 0.918248 7.14558 1.24195C7.76887 1.56564 8.30499 2.03476 8.70855 2.60958C8.84886 2.80945 9.0777 2.92849 9.32191 2.92864C9.56611 2.92879 9.7951 2.81004 9.93567 2.61035C10.7287 1.48373 12.0377 0.750001 13.5174 0.750001C15.9349 0.750001 17.8948 2.70985 17.8948 5.12731C17.8948 7.40288 16.5381 9.6698 14.6742 11.5521C12.9129 13.3308 10.813 14.6489 9.32238 15.2048C7.83177 14.6489 5.73184 13.3308 3.97056 11.5521C2.10667 9.6698 0.75 7.40288 0.75 5.12731C0.75 2.70985 2.70985 0.750001 5.12731 0.750001Z" stroke="#221F1F" stroke-width="1.5" stroke-linecap="round" stroke-linejoin="round"/>
</svg>
