<svg width="27" height="18" viewBox="0 0 27 18" fill="none" xmlns="http://www.w3.org/2000/svg">
<path id="Vector" d="M25.5 15.75C25.8823 15.7503 26.25 15.8601 26.5281 16.057C26.8061 16.2538 26.9734 16.5228 26.9958 16.8091C27.0182 17.0953 26.894 17.3772 26.6486 17.5971C26.4032 17.8169 26.0551 17.9583 25.6755 17.9921L25.5 18H1.5C1.11768 17.9997 0.749952 17.8899 0.471948 17.693C0.193943 17.4962 0.0266475 17.2272 0.00424182 16.9409C-0.0181639 16.6547 0.106012 16.3728 0.351397 16.1529C0.596783 15.9331 0.944856 15.7917 1.3245 15.7579L1.5 15.75H25.5ZM25.5 7.875C25.8978 7.875 26.2794 7.99353 26.5607 8.2045C26.842 8.41548 27 8.70163 27 9C27 9.29837 26.842 9.58452 26.5607 9.7955C26.2794 10.0065 25.8978 10.125 25.5 10.125H1.5C1.10218 10.125 0.720644 10.0065 0.43934 9.7955C0.158035 9.58452 0 9.29837 0 9C0 8.70163 0.158035 8.41548 0.43934 8.2045C0.720644 7.99353 1.10218 7.875 1.5 7.875H25.5ZM25.5 0C25.8978 0 26.2794 0.118527 26.5607 0.329505C26.842 0.540484 27 0.826631 27 1.125C27 1.42337 26.842 1.70952 26.5607 1.92049C26.2794 2.13147 25.8978 2.25 25.5 2.25H1.5C1.10218 2.25 0.720644 2.13147 0.43934 1.92049C0.158035 1.70952 0 1.42337 0 1.125C0 0.826631 0.158035 0.540484 0.43934 0.329505C0.720644 0.118527 1.10218 0 1.5 0H25.5Z" fill="black"/>
</svg>
