<svg width="13" height="18" viewBox="0 0 13 18" fill="none" xmlns="http://www.w3.org/2000/svg">
<g id="Group 17412" opacity="0.7">
<path id="Vector" d="M6.5 1C3.46354 1 1 3.36127 1 6.26949C1 9.61581 4.66667 14.9188 6.01302 16.7504C6.06891 16.8277 6.14215 16.8906 6.22679 16.934C6.31142 16.9774 6.40504 17 6.5 17C6.59496 17 6.68858 16.9774 6.77321 16.934C6.85785 16.8906 6.93109 16.8277 6.98698 16.7504C8.33333 14.9195 12 9.6185 12 6.26949C12 3.36127 9.53646 1 6.5 1Z" stroke="#221F1F" stroke-width="1.5" stroke-linecap="round" stroke-linejoin="round"/>
<path id="Vector_2" d="M6.4999 8.38487C7.51242 8.38487 8.33323 7.55828 8.33323 6.53863C8.33323 5.51898 7.51242 4.69238 6.4999 4.69238C5.48738 4.69238 4.66656 5.51898 4.66656 6.53863C4.66656 7.55828 5.48738 8.38487 6.4999 8.38487Z" stroke="#221F1F" stroke-width="1.5" stroke-linecap="round" stroke-linejoin="round"/>
</g>
</svg>
