<svg width="126" height="38" viewBox="0 0 126 38" fill="none" xmlns="http://www.w3.org/2000/svg">
<g id="Amazon_logo 1" clip-path="url(#clip0_1_408)">
<path id="path8" d="M78.0892 29.6868C70.7817 35.073 60.1898 37.9468 51.0703 37.9468C38.2834 37.9468 26.7719 33.2174 18.0631 25.3515C17.3788 24.7329 17.9919 23.89 18.813 24.3717C28.2116 29.84 39.8325 33.1298 51.8367 33.1298C59.9325 33.1298 68.8384 31.4548 77.0273 27.9789C78.2644 27.4534 79.299 28.7891 78.0892 29.6868Z" fill="#FF9900"/>
<path id="path10" d="M81.1272 26.2109C80.1967 25.0176 74.9527 25.6471 72.599 25.9262C71.8819 26.0138 71.7724 25.3898 72.4183 24.941C76.5949 22.0015 83.4481 22.8499 84.2473 23.8352C85.0465 24.826 84.0393 31.6957 80.1146 34.9745C79.5125 35.4781 78.9377 35.2099 79.2059 34.5421C80.0872 32.3416 82.0633 27.4097 81.1272 26.2109Z" fill="#FF9900"/>
<path id="path12" d="M72.7632 4.1896V1.33225C72.7632 0.89982 73.0916 0.609707 73.4857 0.609707H86.2781C86.6887 0.609707 87.0171 0.905295 87.0171 1.33225V3.77906C87.0116 4.1896 86.6668 4.72604 86.0537 5.57448L79.4249 15.0388C81.8881 14.9786 84.4882 15.3453 86.7215 16.6043C87.2251 16.8889 87.3619 17.3049 87.4003 17.7155V20.7644C87.4003 21.1804 86.9405 21.6676 86.4588 21.4158C82.5231 19.3522 77.2955 19.1277 72.9438 21.4377C72.5004 21.6785 72.0352 21.1968 72.0352 20.7808V17.8852C72.0352 17.4199 72.0406 16.6262 72.5059 15.9201L80.1857 4.90668H73.5022C73.0916 4.90668 72.7632 4.61657 72.7632 4.1896Z" fill="#221F1F"/>
<path id="path14" d="M26.0987 22.0179H22.2068C21.8345 21.9906 21.539 21.7114 21.5116 21.3556V1.38152C21.5116 0.981931 21.8455 0.664445 22.2615 0.664445H25.8907C26.2684 0.680856 26.5694 0.97098 26.5968 1.33225V3.94328H26.6679C27.6149 1.41983 29.3939 0.242958 31.7915 0.242958C34.2273 0.242958 35.7491 1.41983 36.8438 3.94328C37.7853 1.41983 39.9256 0.242958 42.2191 0.242958C43.8503 0.242958 45.6348 0.916241 46.7241 2.42702C47.9557 4.10749 47.7039 6.54883 47.7039 8.68911L47.6985 21.2954C47.6985 21.695 47.3646 22.0179 46.9485 22.0179H43.0621C42.6735 21.9906 42.3615 21.6785 42.3615 21.2954V10.709C42.3615 9.86598 42.4381 7.76403 42.252 6.96484C41.9619 5.62375 41.0915 5.24605 39.9639 5.24605C39.0224 5.24605 38.0371 5.87555 37.6375 6.88274C37.2379 7.88992 37.2763 9.57586 37.2763 10.709V21.2954C37.2763 21.695 36.9424 22.0179 36.5263 22.0179H32.6399C32.2458 21.9906 31.9393 21.6785 31.9393 21.2954L31.9338 10.709C31.9338 8.4811 32.3005 5.20226 29.5362 5.20226C26.7391 5.20226 26.8486 8.39899 26.8486 10.709V21.2954C26.8486 21.695 26.5147 22.0179 26.0987 22.0179Z" fill="#221F1F"/>
<path id="path16" d="M98.0305 0.242958C103.805 0.242958 106.931 5.20226 106.931 11.5081C106.931 17.6005 103.477 22.4339 98.0305 22.4339C92.3596 22.4339 89.2723 17.4746 89.2723 11.2947C89.2723 5.07636 92.3979 0.242958 98.0305 0.242958ZM98.0633 4.32098C95.195 4.32098 95.0144 8.2293 95.0144 10.6652C95.0144 13.1065 94.9761 18.3176 98.0305 18.3176C101.047 18.3176 101.189 14.1137 101.189 11.5519C101.189 9.86598 101.118 7.85161 100.609 6.25324C100.171 4.86289 99.3004 4.32098 98.0633 4.32098Z" fill="#221F1F"/>
<path id="path18" d="M114.419 22.0179H110.544C110.155 21.9906 109.843 21.6785 109.843 21.2954L109.838 1.31583C109.87 0.949084 110.193 0.664445 110.587 0.664445H114.195C114.534 0.680856 114.813 0.910768 114.89 1.22278V4.27718H114.961C116.05 1.54573 117.578 0.242958 120.265 0.242958C122.011 0.242958 123.714 0.872451 124.809 2.59671C125.827 4.19508 125.827 6.88274 125.827 8.815V21.3884C125.783 21.7388 125.46 22.0179 125.077 22.0179H121.174C120.818 21.9906 120.523 21.7278 120.484 21.3884V10.5393C120.484 8.3552 120.736 5.15847 118.048 5.15847C117.101 5.15847 116.231 5.79344 115.799 6.75683C115.251 7.97751 115.18 9.1927 115.18 10.5393V21.2954C115.175 21.695 114.835 22.0179 114.419 22.0179Z" fill="#221F1F"/>
<path id="use28" d="M62.5654 12.477V11.634C59.7519 11.634 56.7796 12.2362 56.7796 15.5533C56.7796 17.2338 57.6499 18.3723 59.1443 18.3723C60.239 18.3723 61.2188 17.6991 61.8374 16.6043C62.6037 15.2577 62.5654 13.9933 62.5654 12.477ZM66.4902 21.9632C66.2329 22.1931 65.8607 22.2095 65.5705 22.0562C64.2787 20.9834 64.0488 20.4852 63.3372 19.4616C61.2024 21.6402 59.6916 22.2916 56.9219 22.2916C53.6485 22.2916 51.0977 20.2718 51.0977 16.2266C51.0977 13.0682 52.811 10.917 55.2469 9.86598C57.3598 8.93542 60.3102 8.77121 62.5654 8.51394V8.01035C62.5654 7.08526 62.6366 5.99049 62.0947 5.19132C61.6184 4.47424 60.7098 4.17865 59.9106 4.17865C58.4272 4.17865 57.1025 4.93952 56.7796 6.51598C56.7139 6.86631 56.4566 7.21117 56.1063 7.22759L52.3293 6.82252C52.0118 6.75136 51.6615 6.49409 51.7491 6.00692C52.6194 1.43079 56.7522 0.0513725 60.4525 0.0513725C62.3465 0.0513725 64.8206 0.554966 66.315 1.98911C68.2089 3.75717 68.0283 6.11639 68.0283 8.68363V14.7487C68.0283 16.5714 68.7837 17.3706 69.4953 18.3559C69.7471 18.7062 69.8018 19.1277 69.4844 19.3905C68.6906 20.0528 67.2784 21.2844 66.5011 21.9741L66.4902 21.9632Z" fill="#221F1F"/>
<path id="path30" d="M11.5437 12.477V11.634C8.73015 11.634 5.75785 12.2362 5.75785 15.5533C5.75785 17.2338 6.62819 18.3723 8.12255 18.3723C9.21732 18.3723 10.1971 17.6991 10.8157 16.6043C11.582 15.2577 11.5437 13.9933 11.5437 12.477ZM15.4685 21.9632C15.2112 22.1931 14.839 22.2095 14.5488 22.0562C13.257 20.9834 13.0271 20.4852 12.3155 19.4616C10.1807 21.6402 8.66994 22.2916 5.90017 22.2916C2.62681 22.2916 0.0759964 20.2718 0.0759964 16.2266C0.0759964 13.0682 1.78931 10.917 4.22517 9.86598C6.33808 8.93542 9.28848 8.77121 11.5437 8.51394V8.01035C11.5437 7.08526 11.6149 5.99049 11.073 5.19132C10.5967 4.47424 9.68807 4.17865 8.88889 4.17865C7.40548 4.17865 6.0808 4.93952 5.75785 6.51598C5.69216 6.86631 5.43489 7.21117 5.08457 7.22759L1.30761 6.82252C0.990128 6.75136 0.639802 6.49409 0.727383 6.00692C1.59773 1.43079 5.73048 0.0513725 9.4308 0.0513725C11.3247 0.0513725 13.7989 0.554966 15.2933 1.98911C17.1872 3.75717 17.0066 6.11639 17.0066 8.68363V14.7487C17.0066 16.5714 17.762 17.3706 18.4736 18.3559C18.7254 18.7062 18.7801 19.1277 18.4626 19.3905C17.6689 20.0528 16.2567 21.2844 15.4794 21.9741L15.4685 21.9632Z" fill="#221F1F"/>
</g>
<defs>
<clipPath id="clip0_1_408">
<rect width="125.901" height="38" fill="white"/>
</clipPath>
</defs>
</svg>
